# Blender v2.79 (sub 0) OBJ File: ''
# www.blender.org
mtllib cylinder-tri.mtl
o Cylinder
v 0.000000 -1.000000 -1.000000
v 0.000000 1.000000 -1.000000
v 0.195090 -1.000000 -0.980785
v 0.195090 1.000000 -0.980785
v 0.382683 -1.000000 -0.923880
v 0.382683 1.000000 -0.923880
v 0.555570 -1.000000 -0.831470
v 0.555570 1.000000 -0.831470
v 0.707107 -1.000000 -0.707107
v 0.707107 1.000000 -0.707107
v 0.831470 -1.000000 -0.555570
v 0.831470 1.000000 -0.555570
v 0.923880 -1.000000 -0.382683
v 0.923880 1.000000 -0.382683
v 0.980785 -1.000000 -0.195090
v 0.980785 1.000000 -0.195090
v 1.000000 -1.000000 -0.000000
v 1.000000 1.000000 -0.000000
v 0.980785 -1.000000 0.195090
v 0.980785 1.000000 0.195090
v 0.923880 -1.000000 0.382683
v 0.923880 1.000000 0.382683
v 0.831470 -1.000000 0.555570
v 0.831470 1.000000 0.555570
v 0.707107 -1.000000 0.707107
v 0.707107 1.000000 0.707107
v 0.555570 -1.000000 0.831470
v 0.555570 1.000000 0.831470
v 0.382683 -1.000000 0.923880
v 0.382683 1.000000 0.923880
v 0.195090 -1.000000 0.980785
v 0.195090 1.000000 0.980785
v -0.000000 -1.000000 1.000000
v -0.000000 1.000000 1.000000
v -0.195091 -1.000000 0.980785
v -0.195091 1.000000 0.980785
v -0.382684 -1.000000 0.923879
v -0.382684 1.000000 0.923879
v -0.555571 -1.000000 0.831469
v -0.555571 1.000000 0.831469
v -0.707107 -1.000000 0.707106
v -0.707107 1.000000 0.707106
v -0.831470 -1.000000 0.555570
v -0.831470 1.000000 0.555570
v -0.923880 -1.000000 0.382683
v -0.923880 1.000000 0.382683
v -0.980785 -1.000000 0.195089
v -0.980785 1.000000 0.195089
v -1.000000 -1.000000 -0.000001
v -1.000000 1.000000 -0.000001
v -0.980785 -1.000000 -0.195091
v -0.980785 1.000000 -0.195091
v -0.923879 -1.000000 -0.382684
v -0.923879 1.000000 -0.382684
v -0.831469 -1.000000 -0.555571
v -0.831469 1.000000 -0.555571
v -0.707106 -1.000000 -0.707108
v -0.707106 1.000000 -0.707108
v -0.555569 -1.000000 -0.831470
v -0.555569 1.000000 -0.831470
v -0.382682 -1.000000 -0.923880
v -0.382682 1.000000 -0.923880
v -0.195089 -1.000000 -0.980786
v -0.195089 1.000000 -0.980786
vn 0.0000 0.0000 -1.0000
vn 0.1951 0.0000 -0.9808
vn 0.3827 0.0000 -0.9239
vn 0.5556 0.0000 -0.8315
vn 0.7071 0.0000 -0.7071
vn 0.8315 0.0000 -0.5556
vn 0.9239 0.0000 -0.3827
vn 0.9808 0.0000 -0.1951
vn 1.0000 0.0000 -0.0000
vn 0.9808 0.0000 0.1951
vn 0.9239 0.0000 0.3827
vn 0.8315 0.0000 0.5556
vn 0.7071 0.0000 0.7071
vn 0.5556 0.0000 0.8315
vn 0.3827 0.0000 0.9239
vn 0.1951 0.0000 0.9808
vn -0.0000 0.0000 1.0000
vn -0.1951 0.0000 0.9808
vn -0.3827 0.0000 0.9239
vn -0.5556 0.0000 0.8315
vn -0.7071 0.0000 0.7071
vn -0.8315 0.0000 0.5556
vn -0.9239 0.0000 0.3827
vn -0.9808 0.0000 0.1951
vn -1.0000 0.0000 -0.0000
vn -0.9808 0.0000 -0.1951
vn -0.9239 0.0000 -0.3827
vn -0.8315 0.0000 -0.5556
vn -0.7071 0.0000 -0.7071
vn -0.5556 0.0000 -0.8315
vn -0.3827 0.0000 -0.9239
vn 0.0000 1.0000 0.0000
vn -0.1951 0.0000 -0.9808
vn 0.0000 -1.0000 -0.0000
usemtl None
s 1
f 2//1 3//2 1//1
f 4//2 5//3 3//2
f 6//3 7//4 5//3
f 8//4 9//5 7//4
f 10//5 11//6 9//5
f 12//6 13//7 11//6
f 14//7 15//8 13//7
f 16//8 17//9 15//8
f 18//9 19//10 17//9
f 20//10 21//11 19//10
f 22//11 23//12 21//11
f 24//12 25//13 23//12
f 26//13 27//14 25//13
f 28//14 29//15 27//14
f 30//15 31//16 29//15
f 32//16 33//17 31//16
f 34//17 35//18 33//17
f 36//18 37//19 35//18
f 38//19 39//20 37//19
f 40//20 41//21 39//20
f 42//21 43//22 41//21
f 44//22 45//23 43//22
f 46//23 47//24 45//23
f 48//24 49//25 47//24
f 50//25 51//26 49//25
f 52//26 53//27 51//26
f 54//27 55//28 53//27
f 56//28 57//29 55//28
f 58//29 59//30 57//29
f 60//30 61//31 59//30
f 54//32 38//32 22//32
f 62//31 63//33 61//31
f 64//33 1//1 63//33
f 15//34 31//34 47//34
f 2//1 4//2 3//2
f 4//2 6//3 5//3
f 6//3 8//4 7//4
f 8//4 10//5 9//5
f 10//5 12//6 11//6
f 12//6 14//7 13//7
f 14//7 16//8 15//8
f 16//8 18//9 17//9
f 18//9 20//10 19//10
f 20//10 22//11 21//11
f 22//11 24//12 23//12
f 24//12 26//13 25//13
f 26//13 28//14 27//14
f 28//14 30//15 29//15
f 30//15 32//16 31//16
f 32//16 34//17 33//17
f 34//17 36//18 35//18
f 36//18 38//19 37//19
f 38//19 40//20 39//20
f 40//20 42//21 41//21
f 42//21 44//22 43//22
f 44//22 46//23 45//23
f 46//23 48//24 47//24
f 48//24 50//25 49//25
f 50//25 52//26 51//26
f 52//26 54//27 53//27
f 54//27 56//28 55//28
f 56//28 58//29 57//29
f 58//29 60//30 59//30
f 60//30 62//31 61//31
f 6//32 4//32 2//32
f 2//32 64//32 6//32
f 64//32 62//32 6//32
f 62//32 60//32 58//32
f 58//32 56//32 54//32
f 54//32 52//32 50//32
f 50//32 48//32 54//32
f 48//32 46//32 54//32
f 46//32 44//32 38//32
f 44//32 42//32 38//32
f 42//32 40//32 38//32
f 38//32 36//32 34//32
f 34//32 32//32 30//32
f 30//32 28//32 26//32
f 26//32 24//32 22//32
f 22//32 20//32 18//32
f 18//32 16//32 22//32
f 16//32 14//32 22//32
f 14//32 12//32 10//32
f 10//32 8//32 6//32
f 62//32 58//32 6//32
f 58//32 54//32 6//32
f 38//32 34//32 22//32
f 34//32 30//32 22//32
f 30//32 26//32 22//32
f 14//32 10//32 22//32
f 10//32 6//32 22//32
f 54//32 46//32 38//32
f 6//32 54//32 22//32
f 62//31 64//33 63//33
f 64//33 2//1 1//1
f 63//34 1//34 3//34
f 3//34 5//34 7//34
f 7//34 9//34 11//34
f 11//34 13//34 7//34
f 13//34 15//34 7//34
f 15//34 17//34 19//34
f 19//34 21//34 15//34
f 21//34 23//34 15//34
f 23//34 25//34 31//34
f 25//34 27//34 31//34
f 27//34 29//34 31//34
f 31//34 33//34 35//34
f 35//34 37//34 39//34
f 39//34 41//34 43//34
f 43//34 45//34 47//34
f 47//34 49//34 51//34
f 51//34 53//34 55//34
f 55//34 57//34 63//34
f 57//34 59//34 63//34
f 59//34 61//34 63//34
f 63//34 3//34 7//34
f 31//34 35//34 47//34
f 35//34 39//34 47//34
f 39//34 43//34 47//34
f 47//34 51//34 63//34
f 51//34 55//34 63//34
f 63//34 7//34 15//34
f 15//34 23//34 31//34
f 63//34 15//34 47//34
